<svg width="404" height="66" viewBox="0 0 404 66" fill="none" xmlns="http://www.w3.org/2000/svg">
<g clip-path="url(#clip0_126_12)">
<path d="M343.61 21.89C342.04 18.15 339.83 14.86 337.04 12.12C334.23 9.35001 330.91 7.12001 327.18 5.49001C323.5 3.89001 319.48 3.07001 315.23 3.07001C310.98 3.07001 306.96 3.88001 303.28 5.49001C299.55 7.12001 296.23 9.35001 293.42 12.12C290.64 14.87 288.43 18.15 286.85 21.89C285.28 25.62 284.48 29.68 284.48 33.96C284.48 38.24 285.28 42.3 286.85 46.03C288.43 49.77 290.64 53.06 293.42 55.8C296.23 58.57 299.55 60.8 303.28 62.43C306.96 64.03 310.98 64.85 315.23 64.85C319.48 64.85 323.5 64.04 327.18 62.43C330.91 60.81 334.23 58.57 337.04 55.8C339.82 53.06 342.03 49.77 343.61 46.03C345.18 42.3 345.98 38.24 345.98 33.96C345.98 29.68 345.18 25.63 343.61 21.9V21.89ZM334.37 42.25C333.29 44.79 331.81 47.04 329.96 48.94C328.11 50.85 325.91 52.39 323.42 53.52C320.87 54.69 318.11 55.28 315.23 55.28C312.35 55.28 309.47 54.68 306.95 53.51C304.51 52.37 302.34 50.83 300.5 48.94C298.64 47.03 297.17 44.76 296.13 42.19C295.1 39.64 294.57 36.87 294.57 33.96C294.57 31.05 295.09 28.29 296.13 25.73C297.16 23.17 298.63 20.9 300.5 18.98C302.34 17.08 304.51 15.55 306.94 14.41C309.47 13.23 312.25 12.64 315.23 12.64C318.21 12.64 320.87 13.23 323.42 14.4C325.9 15.53 328.1 17.07 329.96 18.98C331.81 20.89 333.3 23.14 334.37 25.67C335.47 28.25 336.02 31.04 336.02 33.96C336.02 36.88 335.46 39.68 334.37 42.26V42.25Z" fill="#101010"/>
<path d="M401.5 45.72C403.05 42.08 403.83 38.12 403.83 33.95C403.83 29.78 403.01 25.64 401.4 21.94C399.76 18.19 397.53 14.86 394.74 12.04C391.99 9.25 388.68 7.03 384.93 5.44C381.18 3.86 377.1 3.06 372.81 3.06C368.52 3.06 364.44 3.86 360.69 5.44C356.93 7.02 353.63 9.24 350.87 12.04C348.08 14.87 345.84 18.2 344.21 21.94C342.6 25.64 341.78 29.68 341.78 33.95C341.78 38.22 342.6 42.26 344.21 45.96C344.68 47.05 345.26 48.16 346.02 49.48C347.42 51.88 349.05 54.02 350.86 55.86C353.62 58.66 356.92 60.88 360.68 62.46C364.43 64.04 368.5 64.84 372.8 64.84H403.66V51.18H399.16L401.48 45.72H401.5ZM392.04 42.14C391 44.71 389.52 46.99 387.65 48.92C385.81 50.82 383.64 52.36 381.19 53.5C378.66 54.68 375.86 55.28 372.88 55.28C369.9 55.28 367.23 54.69 364.66 53.52C363.13 52.82 361.66 51.93 360.29 50.86C359.42 50.18 358.72 49.56 358.1 48.92C356.24 47.01 354.76 44.75 353.67 42.21C352.57 39.63 352.01 36.83 352.01 33.89C352.01 30.95 352.57 28.16 353.67 25.57C354.76 23.03 356.24 20.77 358.09 18.86C359.96 16.94 362.17 15.39 364.65 14.26C367.22 13.09 369.98 12.49 372.87 12.49C375.76 12.49 378.65 13.09 381.18 14.27C383.62 15.41 385.79 16.95 387.64 18.86C388.67 19.92 389.6 21.13 390.42 22.47C391.06 23.52 391.59 24.56 392.02 25.63C393.06 28.2 393.58 30.98 393.58 33.89C393.58 36.8 393.05 39.59 392.02 42.15L392.04 42.14Z" fill="#101010"/>
<path d="M25.61 24.08L12.78 2.67999H0.35L19.05 33.65L0 65.32H12.43L25.62 43.32L38.89 65.32H48.62V60.85L32.18 33.65L48.62 6.55999V2.67999H38.54L25.61 24.08Z" fill="#101010"/>
<path d="M107.55 6.06C105.18 4.72 102.61 3.67 99.91 2.93C97.2 2.19 94.36 1.81 91.45 1.81C86.95 1.81 82.68 2.62 78.78 4.21C74.88 5.8 71.44 8.06 68.57 10.9C65.69 13.75 63.4 17.17 61.75 21.07C61.75 21.08 61.74 21.1 61.73 21.11C61.55 21.53 61.39 21.96 61.23 22.39C61.05 22.88 60.88 23.37 60.73 23.87C59.75 27.02 59.26 30.41 59.26 34C59.26 37.59 59.76 40.93 60.73 44.13C60.88 44.64 61.05 45.14 61.23 45.64C61.34 45.96 61.45 46.27 61.58 46.58C61.63 46.7 61.68 46.82 61.73 46.95C63.26 50.7 65.4 54.01 68.09 56.79C70.88 59.67 74.29 61.97 78.21 63.65C82.14 65.33 86.59 66.18 91.44 66.18C94.51 66.18 97.5 65.75 100.32 64.89C100.58 64.81 100.83 64.71 101.09 64.63L103.37 50.96C103.1 51.18 102.83 51.4 102.54 51.61C99.44 53.9 95.62 55.06 91.17 55.06C88.21 55.06 85.41 54.5 82.87 53.41C80.32 52.32 78.08 50.8 76.22 48.9C74.35 47 72.88 44.75 71.84 42.2C70.8 39.66 70.28 36.89 70.28 33.99C70.28 31.09 70.82 28.22 71.89 25.65C72.96 23.07 74.44 20.81 76.31 18.91C78.18 17.01 80.43 15.5 83.01 14.4C85.59 13.3 88.43 12.75 91.44 12.75C95.59 12.75 99.16 13.73 102.05 15.67C104.46 17.28 106.52 19.43 108.21 22.07L110.56 8.03C109.6 7.32 108.6 6.66 107.55 6.06Z" fill="#101010"/>
<path d="M181.02 42.54C184.35 40.74 186.92 38.18 188.66 34.94C190.41 31.69 191.3 28.17 191.3 24.5C191.3 21.27 190.77 18.26 189.72 15.57C188.68 12.89 187.15 10.58 185.18 8.69C183.2 6.8 180.74 5.31 177.86 4.27C174.96 3.22 171.59 2.69 167.83 2.69H147.93V65.33H159.05V46.15H170.49L180.34 65.33H187.63L188.87 57.89L180.57 42.79L181.01 42.55L181.02 42.54ZM179.56 28.56C179.13 30.03 178.37 31.33 177.3 32.43C176.23 33.53 174.82 34.4 173.1 35.03C171.4 35.66 169.27 35.98 166.78 35.98H159.04V13.02H166.78C171.42 13.02 174.85 14.02 176.97 15.99C179.1 17.97 180.18 20.66 180.18 23.98C180.18 25.59 179.97 27.13 179.55 28.57L179.56 28.56Z" fill="#101010"/>
<path d="M242.41 61.31C242.25 61.22 242.11 61.14 241.95 61.05C239.53 59.64 237.36 57.99 235.5 56.15C232.67 53.36 230.42 50.02 228.82 46.22C227.22 42.43 226.41 38.31 226.41 33.96V31.81L210.61 2.69H199.13L189.93 57.71L189.8 58.51L189.67 59.31L188.66 65.33H200.02L201.76 54.26H226.9L232.83 65.33H244.59L242.41 61.32V61.31ZM203.35 43.66L207.42 17.72L221.24 43.66H203.35Z" fill="#101010"/>
<path d="M123.95 2.67999H112.47L111.65 7.57999L111.56 8.14999L111.47 8.71999L109.07 23.07L108.96 23.73L108.85 24.39L104.86 48.24L104.72 49.1L104.58 49.93L102.19 64.26L102.1 64.82L102.02 65.3H113.38L114.64 57.27L114.78 56.41L114.92 55.54L115.13 54.23H140.27L146.2 65.3H146.97V45.03L123.95 2.67999ZM116.69 43.65L120.76 17.71L134.58 43.65H116.69Z" fill="#101010"/>
<path d="M236.19 55.44C237.99 57.22 240.1 58.82 242.45 60.19C243.74 60.94 244.84 61.51 245.9 61.97C249.52 63.55 253.47 64.35 257.65 64.35C261.83 64.35 265.78 63.55 269.4 61.97C273.07 60.37 276.34 58.18 279.11 55.44C281.84 52.74 284.02 49.51 285.57 45.83C287.12 42.16 287.9 38.16 287.9 33.96C287.9 29.76 287.12 25.77 285.57 22.09C284.02 18.41 281.85 15.18 279.11 12.48C276.34 9.75999 273.08 7.55999 269.4 5.95999C265.78 4.37999 261.83 3.58999 257.65 3.58999C253.47 3.58999 249.69 4.35999 246.13 5.86999L239.98 8.48999V2.67999H227.41V33.95C227.41 38.16 228.19 42.15 229.74 45.82C231.29 49.5 233.46 52.73 236.2 55.43L236.19 55.44ZM238.55 25.73C238.98 24.67 239.5 23.64 240.15 22.58C240.97 21.24 241.9 20.03 242.92 18.98C244.76 17.08 246.93 15.54 249.36 14.41C251.88 13.23 254.67 12.64 257.64 12.64C260.61 12.64 263.27 13.23 265.83 14.4C268.31 15.53 270.51 17.08 272.37 18.98C274.22 20.89 275.71 23.14 276.78 25.67C277.88 28.25 278.43 31.04 278.43 33.96C278.43 36.88 277.87 39.67 276.78 42.25C275.7 44.79 274.22 47.04 272.37 48.94C271.75 49.58 271.05 50.19 270.19 50.87C268.82 51.94 267.36 52.83 265.83 53.53C263.27 54.7 260.52 55.29 257.64 55.29C254.76 55.29 251.88 54.69 249.36 53.52C246.93 52.38 244.76 50.85 242.92 48.95C241.05 47.03 239.58 44.76 238.55 42.2C237.52 39.65 236.99 36.88 236.99 33.97C236.99 31.06 237.51 28.3 238.55 25.74V25.73Z" fill="#101010"/>
<path fill-rule="evenodd" clip-rule="evenodd" d="M49.6201 2.67999H60.7401V11.5567L49.6201 5.07007V2.67999ZM49.6201 6.57007V65.32H60.7401V47.16C60.7331 47.1435 60.726 47.1276 60.7191 47.112C60.6966 47.0612 60.6754 47.0135 60.6601 46.96C59.0801 42.94 58.2701 38.58 58.2701 34.01C58.2701 29.44 59.1101 24.9 60.7401 20.94V13.0567L49.6201 6.57007Z" fill="#101010"/>
</g>
<defs>
<clipPath id="clip0_126_12">
<rect width="403.67" height="65.64" fill="white"/>
</clipPath>
</defs>
</svg>
